/* XPM */
static char *_23f6edcbe0942d2b7841b70803298bb4sBDgs2oHwiq5SOF[] = {
/* columns rows colors chars-per-pixel */
"64 64 61 1 ",
"  c black",
". c #010101",
"X c #040404",
"o c gray2",
"O c #060606",
"+ c #070707",
"@ c gray3",
"# c #090909",
"$ c #0B0B0B",
"% c #0C0C0C",
"& c #0E0E0E",
"* c #101010",
"= c gray16",
"- c gray19",
"; c #313131",
": c gray43",
"> c #6F6F6F",
", c #727272",
"< c gray45",
"1 c #747474",
"2 c gray46",
"3 c #767676",
"4 c #777777",
"5 c gray47",
"6 c gray50",
"7 c #818181",
"8 c gray51",
"9 c #838383",
"0 c gray52",
"q c #9F9F9F",
"w c #AFAFAF",
"e c gray72",
"r c #B9B9B9",
"t c gray73",
"y c #BBBBBB",
"u c #C5C5C5",
"i c #C6C6C6",
"p c gray78",
"a c gray79",
"s c gray80",
"d c #CDCDCD",
"f c #CECECE",
"g c gray81",
"h c LightGray",
"j c gray84",
"k c #D8D8D8",
"l c #DDDDDD",
"z c gray87",
"x c #E4E4E4",
"c c gray90",
"v c #E6E6E6",
"b c gray91",
"n c #E9E9E9",
"m c #EAEAEA",
"M c gray92",
"N c gray96",
"B c #F6F6F6",
"V c #F9F9F9",
"C c gray98",
"Z c #FDFDFD",
"A c white",
/* pixels */
"AAAAAAAAAAAAAAAAAAAAAAAAAAAAAAAAAAAAAAAAAAAAAAAAAAAAAAAAAAAAAAAA",
"AAAAAAAAAAAAAAAAAAAAAAAAAAAAAAAAAAAAAAAAAAAAAAAAAAAAAAAAAAAAAAAA",
"AAAAAAAAAAAAAAAAAAAAAAAAAAAAAAAAAAAAAAAAAAAAAAAAAAAAAAAAAAAAAAAA",
"AAAAAAAAAAAAAAAAAAAAAAAAAAAAAAAAAAAAAAAAAAAAAAAAAAAAAAAAAAAAAAAA",
"AAAAAAAAAAAAAAAAAAAAAAAAAAAAAAAAAAAAAAAAAAAAAAAAAAAAAAAAAAAAAAAA",
"AAAAAAAAAAAAAAAAAAAAAAAAAAAAAAAAAAAAAAAAAAAAAAAAAAAAAAAAAAAAAAAA",
"AAAAAAAAAAAAAAAAAAAAAAAAAAAAAAAAAAAAAAAAAAAAAAAAAAAAAAAAAAAAAAAA",
"AAAAAAAAAAAAAAAAAAAAAAAAAAAAAAAAAAAAAAAAAAAAAAAAAAAAAAAAAAAAAAAA",
"AAAAAAAAAAAAAAAAAAAAAAAAAAAAAAAAAAAAAAAAAAAAAAAAAAAAAAAAAAAAAAAA",
"AAAAAAAAAAAAAAAAAAAAAAAAAAAAAAAAAAAAAAAAAAAAAAAAAAAAAAAAAAAAAAAA",
"AAAAAAAAAAAAAAAAAAAAAAAjssssssssssvAAAAnssssssssssksssssssssssAA",
"AAAAAAAAAAAAAAAAAAAAAAe@@O@@@O@@@8VAAAAu@O@O@@O@O<z@@OO@O@@@OOVA",
"AAAAAAAAAAAAAAAAAAAAAe@@@O@@@@OO8VAAAAAuO@O@@OO@4BvO@@O@@O@OO@VA",
"AAAAAAAAAAAAAAAAAAAAeOO@@@O@@O@8VAAAAAAu@O@@O@O4NAn@@O@@@@@@@@VA",
"AAAAAAAAAAAAAAAAAAAyO@O@O@@O@@8VAAAAAAAu@@O@@O<BAAnO@@@OO@O@@@VA",
"AAAAAAAAAAAAAAAAAAeO@@@@@O@@O8VAAAAAAAAu@O@@O4BAAAn@@O@@@@@@OOVA",
"AAAAAAAAAAAAAAAAAeOO@@@@@@OO8VAAAAAAAAAu@@@O4BAAAAn@@O@O@O@@O@VA",
"AAAAAAAAAAAAAAAAy@@@O@O@@@@8VAAAAAAAAAAuOO@<BAAAAAn@O@@@O@@O@OVA",
"AAAAAAAAAAAAAAAeO@@@@O@@@@8VAAAAAAAAAAAu@@4BAAAAAAnOO@@O@@@@@@VA",
"AAAAAAAAAAAAAAe@@OO@O@@OO8VAAAAAAAAAAAAuO4BAAAAAAAn@@O@@@@@@OOVA",
"AAAAAAAAAAAAAeO@@OO@@O@O8VAAAAAAAAAAAAAu4BAAAAAAAAn@O@@@@O@@@@VA",
"AAAAAAAAAAAAeO@@@@@@O@@8VAAAAAAAAAAAAAAkNAAAAAAAAAv@@@@OO@@@@ VA",
"AAAAAAAAAAAeO@@@O@@@@@8VAAAAAAAAAAAAAAAAAAAAAAAAAB4@OO@@@@@O@uAA",
"AAAAAAAAAAeOO@@O@OO@@8VAAAAAAAAAAAAAAAAAAAAAAAAAB<OO@@O@O@@OuAAA",
"AAAAAAAAAyO@@@@@@O@@8VAAAAAAAAAAAAAAAAAAAAAAAAAB5@@O@O@O@@ uAAAA",
"AAAAAAAAe@@@@@O@@@@8VAAAAAAAAAAAAAAAAAAAAAAAAAB<@O@@@@O@@@uAAAAA",
"AAAAAAAeOO@@@OO@O@8VAAAAAAAAAAAAAAAAAAAAAAAAAB<OO@@@@@@@ uAAAAAA",
"AAAAAAeO@@@OO@@@@8VAAAAAAAAAAAAAAAAAAAAAAAAAB4O@@OO@@@OOsAAAAAAA",
"AAAAAeO@O@@@@O@O8VAAAAAAAAAAAAAAAAAAAAAAAAAB<@@O@O@@OO@uAAAAAAAA",
"AAAAeO@@@OO@@@O8VAAAAAAAAAAAAAAAAAAAAAAAAAB4O@@@O@@OO uAAAAAAAAA",
"AAAeOO@OOO@@@O0VAAAAAAAAAAAAAAAAAAAAAAAAAB4@@OO@@@O@@sAAAAAAAAAA",
"AAeOO@O@@@O@@8VAAAAAAAAAAAAAAAAAAAAAAAAAB<O@O@@O@O@OuAAAAAAAAAAA",
"AeOOO@@@@@O@8VAAAAAAAAAAAAAAAAAAAAAAAAAB5@@@O@@@OO sAAAAAAAAAAAA",
"A @@@@O@@@@@=;;;;;;;;;;;;;;;;;;;;;0AAAAu@@@OO@@@@@:AAAAAAAAAAsVA",
"A @@@O@@@OO@O@@@@O@OO@@@@O@@@O@@@O8AAAAuO@O@@@@O@@:AAAAAAAAAs%VA",
"A O@@@@OO@@@@@@OO@@O@@O@@@@@O@O@@@6AAAAu@@@@@OO@@O:AAAAAAAAs*OVA",
"A O@@O@@@@O@@O@@@@O@@@@O@O@O@@OOOO6AAAAu@O@@@@O@O@:AAAAAAAh%@OVA",
"A @@@O@O@@@@@@@@@@@O@O@@O@O@O@@@@O6AAAAu@@O@@@@@@O:AAAAAAs@@@@VA",
"A O@@@@OO@@@@O@O@@@@@@@O@@@@@@@OO@6AAAAu@@O@O@@O@O<AAAAAs*@O@OVA",
"A @@O@@@@O@OO@O@O@@@O@@@O@O@O@@@@@6AAAAuO@@O@@@O@@:AAAAs%@O@@@VA",
"A O@@O@@@O@@@O@@@OO@O@@O@@OO@@@OOO8AAAAuO@@O@@O@O@:AAAs%@@@@@@VA",
"A @@@@@@OO@O@@OO@@@O@O@@O@@@O@O@@@6AAAAu@OO@O@@@O@:AAs*@@@O@O@VA",
"Anvnnvnnnnvnnnvnnnvnvnnq@O@@@@O@@O6AAAAu@@@@@@@@@@<As%O@O@@OO@VA",
"AAAAAAAAAAAAAAAAAAAAAAAwO@@@O@@@@O6AAAAu@@@OO@@@@O<s%@@@@@O@@OVA",
"AAAAAAAAAAAAAAAAAAAAAAAw@@@@@@@O@O6AAAAnsssshsssssjssssshsssssAA",
"AAAAAAAAAAAAAAAAAAAAAAAw@OO@@@@@@@6AAAAAAAAAAAAAAAAAAAAAAAAAAAAA",
"AAAAAAAAAAAAAAAAAAAAAAAw@@@@@O@@@@6AAAAAAAAAAAAAAAAAAAAAAAAAAAAA",
"AAAAAAAAAAAAAAAAAAAAAAAw@O@@O@O@@@6AAAAAAAAAAAAAAAAAAAAAAAAAAAAA",
"AAAAAAAAAAAAAAAAAAAAAAAwO@@@@O@@@@6AAAAAAAAAAAAAAAAAAAAAAAAAAAAA",
"AAAAAAAAAAAAAAAAAAAAAAAwOOO@@O@@OO6AAAAAAAAAAAAAAAAAAAAAAAAAAAAA",
"AAAAAAAAAAAAAAAAAAAAAAAw@@@@@@@@@@6AAAAAAAAAAAAAAAAAAAAAAAAAAAAA",
"AAAAAAAAAAAAAAAAAAAAAAAw@O@@@@O@@@6AAAAAAAAAAAAAAAAAAAAAAAAAAAAA",
"AAAAAAAAAAAAAAAAAAAAAAAwO@@@@OO@@O8AAAAAAAAAAAAAAAAAAAAAAAAAAAAA",
"AAAAAAAAAAAAAAAAAAAAAAAvssssssssssjAAAAAAAAAAAAAAAAAAAAAAAAAAAAA",
"AAAAAAAAAAAAAAAAAAAAAAAAAAAAAAAAAAAAAAAAAAAAAAAAAAAAAAAAAAAAAAAA",
"AAAAAAAAAAAAAAAAAAAAAAAAAAAAAAAAAAAAAAAAAAAAAAAAAAAAAAAAAAAAAAAA",
"AAAAAAAAAAAAAAAAAAAAAAAAAAAAAAAAAAAAAAAAAAAAAAAAAAAAAAAAAAAAAAAA",
"AAAAAAAAAAAAAAAAAAAAAAAAAAAAAAAAAAAAAAAAAAAAAAAAAAAAAAAAAAAAAAAA",
"AAAAAAAAAAAAAAAAAAAAAAAAAAAAAAAAAAAAAAAAAAAAAAAAAAAAAAAAAAAAAAAA",
"AAAAAAAAAAAAAAAAAAAAAAAAAAAAAAAAAAAAAAAAAAAAAAAAAAAAAAAAAAAAAAAA",
"AAAAAAAAAAAAAAAAAAAAAAAAAAAAAAAAAAAAAAAAAAAAAAAAAAAAAAAAAAAAAAAA",
"AAAAAAAAAAAAAAAAAAAAAAAAAAAAAAAAAAAAAAAAAAAAAAAAAAAAAAAAAAAAAAAA",
"AAAAAAAAAAAAAAAAAAAAAAAAAAAAAAAAAAAAAAAAAAAAAAAAAAAAAAAAAAAAAAAA",
"AAAAAAAAAAAAAAAAAAAAAAAAAAAAAAAAAAAAAAAAAAAAAAAAAAAAAAAAAAAAAAAA"
};

