/* XPM */
static char *ammo[] = {
/* ammo icon for ui */
"64 64 8 1 ",
" 	c #FF000000",
"5	c #ff9a00",
"1	c #000001",
"2	c #828282",
"3	c #ffe497",
"4	c #e9ad00",
"0	c #ffdc00",
"x	c #ffffff",
/* pixels */
"                                                                ",
"                                                                ",
"                                                                ",
"                                                                ",
"        1                                                       ",
"       151                                                      ",
"      15551                                                     ",
"      15551                                                     ",
"     1555x51                                                    ",
"     1555xx1                                                    ",
"    15555xx51                                                   ",
"    15555xx51                                                   ",
"    15555xxx1                                                   ",
"   155555xxx51                                                  ",
"   15555555551                                                  ",
"   11155555111                                                  ",
"   10011111001                  1111111111                      ",
"   10000000001                 1xxxxxxxxxx1                     ",
"   10000000001                1xxx111111xxx1                    ",
"   1000003x001               1xxx1      1xxx1                   ",
"   1000003x001               1xx1        1xx1                   ",
"   1000003x001               1xx1        1xx1                   ",
"   1000003x001               1xx11       1xx1                   ",
"   1000003x001               1xx1x1      1xx1                   ",
"   1000003x001               1xx1xx1     1xx1                   ",
"   10000033001               1xx11xx1    1xx1                   ",
"   10000003001               1xx1 1xx1   1xx1                   ",
"   10000003001               1xx1  1xx1  1xx1                   ",
"   10000000001               1xx1   1xx1 1xx1                   ",
"   10000000001               1xx1    1xx11xx1                   ",
"   10000000001               1xx1     1xx1xx1                   ",
"   10000000001               1xx1      1x1xx1                   ",
"   10000000001               1xx1       11xx1                   ",
"   10000000001               1xx1        1xx1                   ",
"   10000000001               1xxx1      1xxx1                   ",
"   10000000001                1xxx111111xxx1                    ",
"   10000000001                 1xxxxxxxxxx1                     ",
"   10000000001                  1111111111                      ",
"   10000000001                                                  ",
"    100000001                                                   ",
"      11111                                                     ",
"                                                                ",
"                                                                ",
"                                                                ",
"                                                                ",
"                                                                ",
"                                                                ",
"                                                                ",
"                                                                ",
"                                                                ",
"                                                                ",
"                                                                ",
"                                                                ",
"                                                                ",
"                                                                ",
"                                                                ",
"                                                                ",
"                                                                ",
"                                                                ",
"                                                                ",
"                                                                ",
"                                                                ",
"                                                                ",
"                                                                "
};
