/* XPM */
static char *b306d65a1cb74155f882dee5d57d83ect5ZtebIPlrEv3hig[] = {
/* columns rows colors chars-per-pixel */
"64 64 17 1 ",
"  c #259505",
". c #2B9606",
"X c #269B05",
"o c #2D9B06",
"O c #309707",
"+ c #319D07",
"@ c #349D08",
"# c #399E09",
"$ c #2EA106",
"% c #32A207",
"& c #34A807",
"* c #35A208",
"= c #3AA309",
"- c #37A908",
"; c #3BA909",
": c #41A60B",
"> c #41AC0B",
/* pixels */
"**+%X%+o.+%$%--%+$+@++*$.@&oo. +o#=:.o*oo.#+@+X$=@+=*@%%=+#oo#$+",
"+*.#.#$o%$..+++%&@@o&*o*.+*  #+ooo=#*X#++X.+%$$o%++*%*oO#*%@.o++",
".O..%*%o$+$#+.o#.+@o%=*..o=o*%+*..*;-.%+#+-$%=%.o$+$%+X.+%**%.++",
".-o$%#=*o$-=+++#+@;+.oo@.+**;=X$++**++@%%*+.+o*@#+$.++o$%+.*%&%+",
"*&%o$o++@%%=..*+@@=-o.o$$*$%==X.#X#%.#%-+o%o=@@*o++o*=*+*$+*o@#+",
"%%*$o+o.#+@+%+*+%+++Oo+.**o++-+*##=+=+%+*-++>=**o$++**$#o+%%o=&*",
"$+*#o*++=++$+oo#%*+++%-+@%%#@+Oo=%%=++=#+*@@==**.#++*$o=$.+*oo+@",
"*++#+o%%+++++#o+&%%+oo+-%++%#O#o%$-=#-*+++=@+-=%o@@++++OXoX@..@+",
"+o@++.o+@....-$+@*%%Xo@;=*+#*.+++.#$=%++*+##o%*+O+++@o=. @+# %*$",
"Xo+$@+X%o@.o*+o O+$$+@-$+=@==X+X#.#+-+%#++#*++@@+o$=*o*oX++@o@&o",
" +%$=+.%o=--++..@@.=+@@.o+.=%+oo+*$%%+$o*++++%+=.-%%@o@==o@@*&o.",
"o%++==o+.=%@*$*-;+@@o%=%++.++*+o+%o@.%+ =+++o+o.%+*+* @*@%&**$=+",
"+o+o$%=++++=+o=*-%%++@@++++*@*%+*%o+$-oo#%*+ooo=o@@@X$&o+$%=o++@",
"$o.%*--+=%#* O.#*X=X$%.ooo=*-%%%+%o$.+# +%$%$$.*o++%o&O@o$$@*%%%",
"$$@*o+*%+++*%-+o.+%..X%@X+=#@+o@#oo#o.+.+%.=+.;*oo+%o@+&o%X+*@%o",
".++++o=o+@o+=--++o+@$$oo$=++**..+@#+++#-+ %%+*=.*+o+@@oo.&$&&@&%",
"+.@+*%=@==*-+-#+o+@+#.%oo@.+%+XX**--%=*@++++ +%X*o.@o+$+@%%+o@@+",
".$.o.%*o=**%*=+*.*=o#.%%%.o%$. o%=@o$*=+oo=++=++**oX++oX+o.. #*@",
"$XX*$@.+++o%*#-++-++=o+++%.o@. @*=@@o@++$%=+#$.+;o@.+@@=.*%+%*@%",
"o o$.o$$@o.+#*#-+%o%;%+%o;. @+.$@#*%@..$%$++o&%+*+$+o*o*+-%o+++@",
". %*oo@o%*+ .@o#*+%$%==# =oo%o++=*+@=oo$-..%@*%#+o+oX-X@#*@o@@.@",
".o%*%@+++@@o+.#o+o*.+#-* o#X+o+#=+.+++o$++. oo@@.@%.oo+@@+==+*%*",
"+*++@$%=++%-Xo+%oo+o+*#%$+@ X.**#@**--*++++%X.o+=.$++o*+o==*$=%%",
"-%*%+@+;-=%-o$o@#@* o=o++*+++o%+o==@#@+o+$%++o$++X@%o=@#$;-=o*=@",
"o+oo=@@@+@@*+o+++##oooo#=+.o%#.+.=*%#+O++*%%$%o+@$%o -$=$@*+.**@",
"@=$%-o++ oo@+=$%*@oo$$.+@o&&%#.%-$-+##@.%**=&++*+%+o*oX$*o$+.@.@",
"*=%@@..@oo+O@=#$;%#oX.o$%o.o.+..$X++%*+o+%*++% ==$+.@o.+.+@+oo.@",
"@++++o.o$+.Ooo+;*oo%..oo*.o++;%-+oo+%*+o++++o+X@*++o.@o.@@@.=**@",
"o@..o+X+..o@.o+##++*+o.+*$$*+-o;o+o%o$%+++**o=&=@.;+++X@$o@+@+++",
"*o=++;$+$$+%=+%#o++@..o*-*.#.+==@o--o o-%+@%@=o@@=%*%o%+$++o=+++",
"=@*%o=+%-%@**=+*+.+=oX+#+@@o +#+O.$*.+.#@+oO;@.++*+*%+*oo.=+*..%",
"#O@@+%$*%.@=o#%%*o+-$. .+.oo.-+%=oX%+*##+*@.#@.@*@+o+*+@oXo+++=+",
"+%o@.*%+@.o%*o*%@@$$o$&-X*%o+X*%=%.+%#-+$++=-$o-X+X*oX@o=-%$*+@+",
"+%o$+@.+%;+=%$%+@o#@=%=;%o%+*.$o%%+++*$+$o+@#o+$+X.+.$*+#+= *#@.",
".@@ &@#+*=%=+*-+o+*o;$&=$%$@o@*@++X+**oo@**$*@%$=.o++%%+#.==*+%+",
"o+#o+++=@=*%%*+%.&$*;$o=o@.@o*@+++ -@+#.#** +@+o%o**#@++@o*#o=o%",
"$+.++$=%###+$+.&*$X+=%+#%@O*=$-$o..=+o+o*=%o%%*X*+=@*+%o*@=*$%&+",
"=oo.+*.o==+=..+.@oX+o@@*+*oo=.@+%+#o@+o+@*.+++*.o+&@o*.*@@=%Xo%+",
".--%+@o+%;$*+.o @+*@@o@&o@ &=@@$++=%-;#++=%+=o#o.o+$$$o+@+*@.o.@",
"X@*+=o+%+*X+%+*o$@$*.+@*o. +#o**+%+$===*-#@@===o%$ @oo*%@@@*+&o%",
"o.+.+$*$@o.@@.=++oo@*+%$$++@.@%++o+.@@#=%+@@#*#@*o+#+o+--*+$$o**",
"=.+*+%#o*+o@%.*$+o$=*@$$$*=**@@O+.X++@.@o@%++@+=+++o$+-*@@+$+.@+",
"%o-+%.oo%$=@++**o$ @@+++o=&+o&$o=*.$%%*$=**o$@%=#.. +.=++o$%@@+ ",
"%o+$+o.+%+*#.@@@o+o.#@++@o+@ +o##+%+*@o%$$&.*%X;;%.++.*X=$+%*@..",
"@=.+**.+*++o*+$%.o.%**=+.@X+o+*o+=o+%+o++%+o@=+$#$.-%%+X#X-*@o$+",
"=#..+;o$;*o +$+.Xo+$@;$+@+..oX=$=%+$@++##+.%+++X$=++-+o.+.#.*.*o",
"$*+**=+%=@o$++$+o.*@.=++-**oo*.=*+#++.@*@+$%.+%Xo+=o$$$$$$..+.**",
"++@-%+%+@@+%$*o+-o;@o@%.=@= o*++*o+.@$==@@=$+o%++.+++$o-.+*+XX+o",
"+o++o+++O=X%o:+-=+o@++$%@+#o%==.+++++*;*=@*++o.#;$++%%+=.#@=%X+.",
"o$o%+...#+Xo$*++o%*o#+$=o**+*#@@+++o+*+++#=+.$++*+o*+@+=#o@@%.#&",
"-%+%+*$o:++ ++=$+*$X%$o.@%o+*+o%%o$*.++ +%*;%$$-.. *o+#@$%*@.@=&",
"*+oo$=o+#.$o@ =+@oo++=%.+ .o++.$+$++++@++%%=#o++o*@+o#o.o+#*+.=@",
"o=.Xo=++o.X&+o+@@*oo%*o+*X+=o*+$%=.+%*%=+++=*%++X==$%$%+.#=**$=*",
"+=oXo=o%.%+.$%o+**+o+* =@o.*o$%%-@.##@o+oo*@$.++ .&$$$o+.@;*+@@@",
"o*%o+@oo==%o$$.@*+@*@@o+*o*+@+o=%#=+-%$+-%$@o.+=*+$*$-@%*+;o**+o",
"o=#+.%=@%o*+@X++o%=.@ooo@$#$++.+o%*+$.+.$$.+o.$&=+%o*=;%@$=o+%++",
"$*@+.*@oo.o+@%Xo+=@@+&*@.*+ $$+*++o+..@%oo. +%..%$@+o+&+@+=o.o+$",
".@o%@@oXo*oXoo $++@oo*=.o#- -%$=%-+*+$+*=$++%o=.+X.+. -$%$**$+=+",
".%%X@=oX&%%$. o*-+%$@#=X+++$%*+$#*+%++X+=%$$%.+.+o+$*$*$+*==o%++",
"*%%.*= .$o.%..%@++..===.-%%$+*+.#**o+X.+%%++++***%$@o+%$ =*@+%.=",
"#++X**o@@+o%%*%+.o+.#+%*$#o++@ooo*@+$.+%*o.o+@+$+$-#.X+$.+@@@#o+",
"*+#.o+o;@=%o%@..++% ++o$o@+=+=..@+.o%-@.#*+-+*=$$o+++ %++o+o+@$+",
"%o+$.o$;%=..+o@*o%$$+$..++%==o.%*+o %+@oo#.+.-*+o*+@+.+*%%$*=*+%",
"=@$%XX+.@#oo@*o$+-$++.#++#.+@*X@*=$%o%o$.+=#O @+@@+==%%%-.#=*=+o"
};
