/* XPM */
static char *fef7b043a16d43f58659b9f612b235b22J6uRTsFbEkGxt6Q[] = {
/* columns rows colors chars-per-pixel */
"64 64 253 2 ",
"   c None",
".  c #3B0509",
"X  c #380E18",
"o  c #25060B",
"O  c #191C2E",
"+  c #2A1C28",
"@  c #221C31",
"#  c #1E2136",
"$  c #252737",
"%  c #2F2A34",
"&  c #470508",
"*  c #4E0B11",
"=  c #71141B",
"-  c #671116",
";  c #6D1921",
":  c #4D3036",
">  c #732A33",
",  c #4C1620",
"<  c #6C5611",
"1  c #1E2444",
"2  c #272C47",
"3  c #2D3048",
"4  c #383849",
"5  c #293454",
"6  c #383B54",
"7  c #2A2C57",
"8  c #0B1376",
"9  c #11156E",
"0  c #2B336C",
"q  c #2F3074",
"w  c #281B6A",
"e  c #473248",
"r  c #663748",
"t  c #5B195D",
"y  c #3B4256",
"u  c #375A5B",
"i  c #394163",
"p  c #365474",
"a  c #324774",
"s  c #46485B",
"d  c #544C52",
"f  c #7B5354",
"g  c #4A4D6B",
"h  c #545567",
"j  c #454C76",
"k  c #495279",
"l  c #585B77",
"z  c #4D4D6B",
"x  c #6D5A74",
"c  c #47797A",
"v  c #59697C",
"b  c #676879",
"n  c #787079",
"m  c #8C1013",
"M  c #901D24",
"N  c #90282E",
"B  c #AA2326",
"V  c #A01413",
"C  c #D01A19",
"Z  c #88375C",
"A  c #907048",
"S  c #897072",
"D  c #AD880C",
"F  c #AD8B3C",
"G  c #D1AE15",
"H  c #CBA637",
"J  c #DCC918",
"K  c #E6CC1B",
"L  c #A78E4C",
"P  c #A28668",
"I  c #BDA173",
"U  c #C7A365",
"Y  c #0C1482",
"T  c #0D168B",
"R  c #141B87",
"E  c #0D1594",
"W  c #131C9B",
"Q  c #121A92",
"!  c #080F85",
"~  c #19219D",
"^  c #1E2487",
"/  c #32348E",
"(  c #131DA8",
")  c #141FB6",
"_  c #0E15A6",
"`  c #1B24A6",
"'  c #1A23A6",
"]  c #1A25B6",
"[  c #252EAA",
"{  c #252DB4",
"}  c #2A35B9",
"|  c #353AAF",
" . c #512793",
".. c #385689",
"X. c #325098",
"o. c #3B40BE",
"O. c #464B81",
"+. c #495788",
"@. c #545D8B",
"#. c #5B5C87",
"$. c #4A5B98",
"%. c #525597",
"&. c #5D638B",
"*. c #5B668A",
"=. c #566294",
"-. c #5C6595",
";. c #5C669A",
":. c #5E699C",
">. c #55629B",
",. c #54718B",
"<. c #666A87",
"1. c #6C7487",
"2. c #747585",
"3. c #72758B",
"4. c #78798D",
"5. c #636B9C",
"6. c #646A96",
"7. c #6A7597",
"8. c #767996",
"9. c #7B678C",
"0. c #434BB7",
"q. c #4E59B4",
"w. c #5C6AA3",
"e. c #5C6CAC",
"r. c #4D7CA3",
"t. c #646EA3",
"y. c #636BA9",
"u. c #6C75AC",
"i. c #6974A9",
"p. c #747BAC",
"a. c #767BA4",
"s. c #6976B6",
"d. c #747DB2",
"f. c #747FB8",
"g. c #656DBB",
"h. c #6B46A4",
"j. c #111BC2",
"k. c #1824C6",
"l. c #1927D6",
"z. c #2935D9",
"x. c #2C35CE",
"c. c #1A29E6",
"v. c #1F2EF6",
"b. c #2936E7",
"n. c #2634EF",
"m. c #3845C6",
"M. c #3544D8",
"N. c #3849ED",
"B. c #4952CA",
"V. c #5463C1",
"C. c #5878CB",
"Z. c #6C79C6",
"A. c #931F8D",
"S. c #866C85",
"D. c #548788",
"F. c #5C9299",
"G. c #7C8499",
"H. c #6A9495",
"J. c #7A82A8",
"K. c #7995A3",
"L. c #7B84BB",
"P. c #7A83B6",
"I. c #6583AF",
"U. c #77AAAE",
"Y. c #5B8CB0",
"T. c #589ACF",
"R. c #7986C6",
"E. c #7B88DA",
"W. c #7097CE",
"Q. c #7B89E7",
"!. c #68A7CD",
"~. c #59CDD6",
"^. c #848596",
"/. c #928D99",
"(. c #AD9495",
"). c #868AA6",
"_. c #8D93AC",
"`. c #8794A8",
"'. c #9497A8",
"]. c #838ABB",
"[. c #858AB4",
"{. c #8A93B7",
"}. c #9699B7",
"|. c #B49BA9",
" X c #9AA4B9",
".X c #92AAAF",
"XX c #A7A9B8",
"oX c #A4B2B6",
"OX c #A9A9B2",
"+X c #B3AA91",
"@X c #CBA2A3",
"#X c #D5D0BA",
"$X c #838CC3",
"%X c #858CC9",
"&X c #8993C9",
"*X c #969BC9",
"=X c #8B97D6",
"-X c #959DD5",
";X c #818FD7",
":X c #9AA4C8",
">X c #9CA3D7",
",X c #92B3C4",
"<X c #AAADCD",
"1X c #A6AAC7",
"2X c #AAB4C7",
"3X c #BBBCCB",
"4X c #B3B5C9",
"5X c #A5AAD9",
"6X c #ADB2DA",
"7X c #B6B9DB",
"8X c #BBBEDB",
"9X c #B6BAD5",
"0X c #B0AFC4",
"qX c #A4ACE4",
"wX c #AAB4E9",
"eX c #B4BDFA",
"rX c #B3B9EC",
"tX c #8E9BEA",
"yX c #C5BFCB",
"uX c #8ECACD",
"iX c #BDC2DB",
"pX c #B8C9D6",
"aX c #B3C8D1",
"sX c #BBC7E5",
"dX c #B1C8F0",
"fX c #A2E7ED",
"gX c #C2C6CD",
"hX c #C3C5DB",
"jX c #CACADC",
"kX c #C8C8D4",
"lX c #D1D2DD",
"zX c #E4D2CB",
"xX c #C6CAE7",
"cX c #CBD1E4",
"vX c #C8D9EB",
"bX c #D3D4E4",
"nX c #D4D5EB",
"mX c #D8DBEB",
"MX c #CDD3F5",
"NX c #D3D6F4",
"BX c #D6D8F6",
"VX c #C8CCF5",
"CX c #DDE1E9",
"ZX c #D9E9F5",
"AX c #DBFEFF",
"SX c #E4E5EC",
"DX c #EBEDFB",
"FX c #E6E8F6",
"GX c #EBF3F9",
"HX c #F6F9FD",
"JX c #FBFDFE",
"KX c #F2F3F8",
"LX c #F0E9E7",
/* pixels */
"                                                                                                                                ",
"                                                                                                                                ",
"                                                                                                                                ",
"                                                                                                                                ",
"                                                                                                                                ",
"                                                                                                                                ",
"                                                                                                                                ",
"                                                                                                                                ",
"                                                1X                      jX                                                      ",
"                                                xX                    iX                                                        ",
"                                              &X                    1X                                                          ",
"                                              <X                  &XjX                                                          ",
"                                            @.sX                P.cX                                                            ",
"                                            {.                d.9XjX                                                            ",
"                                          t.wX              d.:XbX  VXmX                n.b.                                    ",
"                                          6.<X              $XbXyXxXBXmX              M.c.c.n.                                  ",
"                                      <.<.8.).uXvX        f.bXkXxXVXFXnX            8 M.4 e 0.                                  ",
"                                    6.a.].&X{..X2XXX{.}.f.8XjX4XMXMXDXmX          E E m.$ 3 z b.                                ",
"                                  =.d.&X*X-X*X<.[.<X<Xu.-XmX4XrXBXFXKXFX  J     ] E } [ 4 3 6 B.                                ",
"                                -.;.].-X-X5X5Xd.-X8X5.$XmX8XgX9XMXDXFXFX  J     ' Q m.q 6 3 2 %.b.                              ",
"                                ;.w.W.wXwXqX>X>X5Xp.d.xXkX3XGXSXMXDXFXmXK     ( W Q M.6 y 2 3 s M.                              ",
"                                w.e.7X-XwXeXeXeXwX].6XbXXXZXaXJX7X7XnXzXG   W ( ( E m.Z.Z.q 5 2 q.                              ",
"                              t.>.w.BXtX;X5XeXeXMXVXmXyXjXDXoXFXKX}.7XG   ( ' ` Q ( B.Z.Q.Z.2 2 k                               ",
"        i.i.5.i.          s.:.P.e.6XVX-X:.c `.NXmXmXhXXXHXJXmXaXh b zXG   ' ' ` W n.b.Z.E.Z.1 2 /                               ",
"            w.t.s.p.p.p.d.p.y.y.R.sXH.c U.2X.XaXxXcX<XXXHXJXKX.X3 % H L { W { W c.v.k.;XZ.V.2 1 k.                              ",
"                  >.y.u.u.s.d.s.R.sX.XpXpXH.pXqXBX3X3XJXlXbXjXJXCX+XU &X} [ { k.c.z.b ;XtX5.# (                                 ",
"                      a @.u.u.y.L.3X,.c D.,X-XBX3X'.SXKXS. XmX/.# P z.{ { { ] l.c.hXFXE.Q.y.~ )                                 ",
"                    8 Y T x b ;.s.R.%X&X&X-XMX9XOXaXAXuXn gXJXA '._ z.x.~ x.l.k.g.vXJXE.Z.C.z.                                  ",
"                  { Y E z.0.P S.+.p t.W.&XdXiXXX/.fX~.(.7.mXLXI I ] ~ ~ ~ k.l.c.s.&X7X1.f.>.x.                                  ",
"                    [ ) M.T _ P /.w...a >.4X0X^.3.H.@XKX/.GXzXH 9.} / / j.l.x.$XoXXX<XjX4XkXkXOX                                ",
"                    ( T z.` W j.S r.Y.a y + 2.8.|.zXKXFXOXKXhXp._./ <.[.4.%Xd.iX4 #.^.<.n s u H.oX1X X                          ",
"                      Q Y z.^ T 0.J.T.uX,.~.U.W.qXNXFXbXH.mX@X,Xs s y e 9XjXlX<Xp.cXJXLXhXmXlXaX XK.^.XX                        ",
"                      T Y Y z.T w L p T.fXv $.j ;XS.gXn l ZX|.XXi h e ,.KXbXJXKXaXhXbX&XJXZXJXJXJXJXKXDX                        ",
"                    ~ E T 8 T z.R q L @.T.fXh 5 <.- C > | ).aXa s 6 z 7 <. XjXbXmXZXHX&XJXiXC.R.5X8XjXlX                        ",
"                    ' W q.X.8 T N.9 / S a.T.7X5.0 = B A.n.O.S.A % s / 9 Y Y 9 n G.GXbXwXFX&XV.V.V.g.iXXX                        ",
"                    ' | K.7.mX`.R Q Y T / q l p.)  .h.m.h.S < D d d 7 W _ ( ` } R 3 <.XXhXq.V.V.q.%X9XbXFXgX                    ",
"                    ^ a..XqXMXn OX1.9 /.: g q / _ l.C.6.F D D f S 7 e R T W _ ( ( ( w O O $.g.0.:XdXn g _.1XkX                  ",
"                    p.@.R.%XqXMXOX'.'.S < < / l.p U.p.}.H S '.gXFX4 $ = t 9 T k.z.N.N.| s $ OXkXhXhX                            ",
"                  d.=.W.p.$ 5 a.:X8X        { W gX| M.X.X.1X9X}.G.e N B M 6 1Xl x.v.z.y.*.2.b z                                 ",
"                  t.P.1XiXoXy :.8.        p.).l s &.n.N.V.8.b l w ; B N 6 8.}.LX4X} 0.'.J.b <.4.                                ",
"                6.=XP.rXxX2X}.7.        6.{.5.].3.1 E n.' R ) [ 7 r k %.P.].).h /.XXF.K.c 4.b l 2.G.                            ",
"                t.i.;.t.L.5XkX        ].:Xy.$.t.[.b 7 w ....$ $ 3 -.p.&XJ.qXBXiX'.{.F.D.H.D.8.4.b n 8.4.                        ",
"                d.5._.3 k             I.*X&.X.w.t.p.<.& r <Xi k t.P.S.R.{.@.-XxXhX}.].J.c F.,.&.3.8.<.b 1.n                     ",
"                [.7.pX$           oX-.# +.1XL.eX}.;.e & Z 0Xt.u.d.u.5.O.^ 0 -.J.{.}.[.MXcXuXD.J.4X8.G.8.1.b 4.                  ",
"                J.2XH.          ,XaXv 3 6 y.-X].G.*.& * |.p.d.a.7.J.1X0X0 +.6.*X9X6X<X>XDX:XbX). X'.> <.).S.8.G.2.              ",
"                -.aX            =XsXpX2 2 a #.l l |.@.-.7X<X_.8.8.  7 <.0X*.+.8XNXNXVXXXP.mXmXk VX7XS.B r 3.).S.4.^.            ",
"              -.:X            e.$.sXZXpXJ.=X:X4XxX6X].`.j a.<.r         =.+.+.5XDXKXDXhXh DX1X7X<XbX2X; N V f a._.).G.8.        ",
"                                e.&XHXHXSX%X$X*X*X).<XL.b - > N         =.+.t.L.$X6XBX8X4.mX9X].NX}.1X^.. N m m v ).{.).^.      ",
"                                $.+.k <.<.g k 6.'.{.3.+ - ; & &           +.5.t.p.].[.h <.-.<.w.cXVX<XxX0XX N m     3.}._._.    ",
"                                  #     @.=._.{.^.h b + . . . .             k =.6.6.@ $ 2 $ 3 O.;.0XmX*XxX)., M m       8.*X}.:X",
"                                          a j s z z h h o . &                 k k z 6.1.$ O 6 $.t.t.{.7X-XxXx > V           K.:X",
"                                            6       4 4 o .                       :.k +.y j >.;.5.t.t.7.R.=XhX+ - -           z ",
"                                                      o .                             >.{.d.-.=.5.5.@.g.f.R.&.3 , m             ",
"                                                                                          5.:.;.6.z e.w.u.i 1 2 X M m           ",
"                                                                                                  * e #.6 # @ X * &             ",
"                                                                                                    X * X + X * &               ",
"                                                                                                          X . &                 ",
"                                                                                                                                ",
"                                                                                                                                ",
"                                                                                                                                ",
"                                                                                                                                ",
"                                                                                                                                ",
"                                                                                                                                ",
"                                                                                                                                "
};
