/* XPM */
static char *heart[] = {
/* heart icon for ui */
"64 64 5 1 ",
" 	c #FF000000",
".	c #e10000",
"1	c #000001",
"2	c #ffcccc",
"3	c #ffffff",
/* pixels */
"                                                                ",
"                                                                ",
"                                                                ",
"                                                                ",
"                                                                ",
"                                                                ",
"                                                                ",
"                                                                ",
"                                                                ",
"                                                                ",
"                                                                ",
"            111           111                                   ",
"          11...11       11...11                                 ",
"         1.......1     1.......1                                ",
"        1.........1   1....222..1                               ",
"       1...........1 1....22322..1                              ",
"      1.............1.....22332...1                             ",
"      1.............1.....22222...1                             ",
"      1....................222....1                             ",
"       1.........................1                              ",
"       1.........................1                              ",
"        1.......................1                               ",
"         1.....................1                                ",
"          1...................1                                 ",
"           1.................1                                  ",
"            1...............1                                   ",
"             1.............1                                    ",
"              1...........1                                     ",
"               1.........1                                      ",
"                1.......1                                       ",
"                 1.....1                                        ",
"                  1...1                                         ",
"                   1.1                                          ",
"                    1                                           ",
"                                                                ",
"                                                                ",
"                                                                ",
"                                                                ",
"                                                                ",
"                                                                ",
"                                                                ",
"                                                                ",
"                                                                ",
"                                                                ",
"                                                                ",
"                                                                ",
"                                                                ",
"                                                                ",
"                                                                ",
"                                                                ",
"                                                                ",
"                                                                ",
"                                                                ",
"                                                                ",
"                                                                ",
"                                                                ",
"                                                                ",
"                                                                ",
"                                                                ",
"                                                                ",
"                                                                ",
"                                                                ",
"                                                                ",
"                                                                "
};
