/* XPM */
static char *_62c635b99e34ba0c3585fb161d776f1vhxeqlu6xzLu8rvO[] = {
/* columns rows colors chars-per-pixel */
"64 64 253 2 ",
"   c #05070B",
".  c #07090D",
"X  c #080B0F",
"o  c #000104",
"O  c #070B12",
"+  c #0B0D14",
"@  c #0C0F18",
"#  c #100E17",
"$  c #110F19",
"%  c #100712",
"&  c #0D1017",
"*  c #0D111A",
"=  c #12131C",
"-  c #19141E",
";  c #13141A",
":  c #23171E",
">  c #240C1A",
",  c #0B1828",
"<  c #151621",
"1  c #1A1622",
"2  c #161823",
"3  c #1B1925",
"4  c #1D1C2A",
"5  c #151B2A",
"6  c #071D32",
"7  c #1A1D32",
"8  c #1E0E20",
"9  c #231624",
"0  c #231C2C",
"q  c #2B1B2D",
"w  c #261827",
"e  c #35172B",
"r  c #251E32",
"t  c #2B1C32",
"y  c #2C1E38",
"u  c #321D34",
"i  c #371E38",
"p  c #1E202D",
"a  c #042139",
"s  c #19223A",
"d  c #0A2327",
"f  c #23222F",
"g  c #29252C",
"h  c #242232",
"j  c #2A2235",
"k  c #24243A",
"l  c #2B253B",
"z  c #2C2B38",
"x  c #33233C",
"c  c #3A223D",
"v  c #342838",
"b  c #34343A",
"n  c #39373B",
"m  c #461E3C",
"M  c #43223D",
"N  c #4C253E",
"B  c #532A3E",
"V  c #042846",
"C  c #1A2744",
"Z  c #182E52",
"A  c #123456",
"S  c #2C2A44",
"D  c #2A2845",
"F  c #342441",
"G  c #3B2443",
"H  c #332B43",
"J  c #3B2C4B",
"K  c #3A2A48",
"L  c #3D3E41",
"P  c #3D324C",
"I  c #393346",
"U  c #392E54",
"Y  c #293357",
"T  c #393558",
"R  c #282C50",
"E  c #0A3A66",
"W  c #2B3A68",
"Q  c #541F44",
"!  c #432445",
"~  c #4B2444",
"^  c #4B2549",
"/  c #422A4B",
"(  c #4B2B4D",
")  c #462847",
"_  c #57274A",
"`  c #453749",
"'  c #442E52",
"]  c #4D2D53",
"[  c #4A2755",
"{  c #542C55",
"}  c #582C57",
"|  c #443353",
" . c #493659",
".. c #53335C",
"X. c #5C325D",
"o. c #573558",
"O. c #52314F",
"+. c #662B57",
"@. c #67365B",
"#. c #73395C",
"$. c #6F2853",
"%. c #4A3A64",
"&. c #5C3562",
"*. c #583A66",
"=. c #643A6B",
"-. c #693566",
";. c #773868",
":. c #693D73",
">. c #783C75",
",. c #612D60",
"<. c #3B414D",
"1. c #114377",
"2. c #324B77",
"3. c #4A424C",
"4. c #46445A",
"5. c #544458",
"6. c #494B55",
"7. c #494566",
"8. c #574568",
"9. c #464677",
"0. c #574A75",
"q. c #515475",
"w. c #67456E",
"e. c #6A4676",
"r. c #774578",
"t. c #675476",
"y. c #765977",
"u. c #75506C",
"i. c #6D556E",
"p. c #83386A",
"a. c #8F3874",
"s. c #803158",
"d. c #874578",
"f. c #894F6F",
"g. c #AA5C7E",
"h. c #165993",
"j. c #2E4F87",
"k. c #3A7BB2",
"l. c #2F6793",
"z. c #54558C",
"x. c #7A4A82",
"c. c #685587",
"v. c #755888",
"b. c #765E95",
"n. c #685D91",
"m. c #4F668C",
"M. c #656588",
"N. c #796488",
"B. c #6D7295",
"V. c #766BA8",
"C. c #813F80",
"Z. c #874985",
"A. c #984A89",
"S. c #865789",
"D. c #9A588C",
"F. c #895B96",
"G. c #985898",
"H. c #A85595",
"J. c #AF5390",
"K. c #886799",
"L. c #95659D",
"P. c #8E759D",
"I. c #946C91",
"U. c #AB6E97",
"Y. c #9F5EA1",
"T. c #AE5CA2",
"R. c #9769A5",
"E. c #9474A3",
"W. c #9879A9",
"Q. c #9876B3",
"!. c #8A71A8",
"~. c #A866A7",
"^. c #B766A9",
"/. c #A578AA",
"(. c #B773AB",
"). c #A779B3",
"_. c #B67AB9",
"`. c #B26DB4",
"'. c #C55EA6",
"]. c #C668A6",
"[. c #C579B8",
"{. c #CD71AD",
"}. c #C66F97",
"|. c #9A7CC2",
" X c #728DAF",
".X c #6A95D1",
"XX c #52ADE1",
"oX c #72AEE5",
"OX c #6EA5DF",
"+X c #7CCCEF",
"@X c #389DD5",
"#X c #A88A9E",
"$X c #9982AB",
"%X c #9382B3",
"&X c #9092B7",
"*X c #A284AD",
"=X c #A484B3",
"-X c #A986B8",
";X c #B28CBD",
":X c #B686BC",
">X c #A993BA",
",X c #B395BE",
"<X c #BD80AD",
"1X c #A4A4B6",
"2X c #9CA1B1",
"3X c #C987BF",
"4X c #D28BB9",
"5X c #E692BC",
"6X c #9997C3",
"7X c #9185CB",
"8X c #A887C6",
"9X c #B78AC4",
"0X c #A798C7",
"qX c #B998C6",
"wX c #AF97D1",
"eX c #93A3DA",
"rX c #B6A7C9",
"tX c #B8A5D9",
"yX c #AFADD4",
"uX c #92AFE7",
"iX c #BABBE8",
"pX c #ADB3E6",
"aX c #C689C5",
"sX c #C599CA",
"dX c #D697C6",
"fX c #D687C2",
"gX c #EA8CC5",
"hX c #C4A5C9",
"jX c #DAA5CB",
"kX c #D5A8D1",
"lX c #C9B6D6",
"zX c #DAB7DB",
"xX c #C8A9D7",
"cX c #E9B0D5",
"vX c #D6BDE7",
"bX c #C2B8E4",
"nX c #95D5F1",
"mX c #B3CFF1",
"MX c #8FE5F9",
"NX c #B2ECFB",
"BX c #D8C2DD",
"VX c #DBC5E6",
"CX c #D7D6EB",
"ZX c #CBD6F2",
"AX c #E9D7EC",
"SX c #EAD7F2",
"DX c #E6CAE8",
"FX c #D7F8FE",
"GX c #CCE8F9",
"HX c #F2E4F4",
"JX c #E5F7FE",
"KX c #F5FDFF",
"LX c #EFE0F2",
/* pixels */
"  X   - X X X   O O + X O g O O + + O + + + @ O & & 9 & = g * * & * * * * * * * * * * * * * & & L & & & & & & * & f & $ & + + + ",
"    X X O   O X X O X O N + & O @ + + @ + @ O @ & * & & * * * * & * * * * * * * * * * ; * ; <.; * * ; ; ; * * * & + & ; & # ; + ",
"      O X X X O O X O X O + + + O + @ # # & & * & * * * * * = $ * * * * * * 2 * * 2 ; = d = <.; * * ; & * = ; = ; ; & = & ; + ; ",
"O X O O X X + X O O + + + + + + @ @ & & * n = = * * * * = = ; = * * < < d 2 2 2 2 2 2 = ; 2 ; L ; 2 = = 2 ; = 2 ; f ; ; ; n ; # ",
"X X X X b X O X & O & O + + + + 3 $ = = = * * 2 * * < * < = * , < < = 5 2 2 2 2 2 3 2 2 2 = 2 = d 2 - 2 2 2 - = - = - = - ; = = ",
"X X X X X X X O X O X X & + & & = $ $ ; < < = * * * = = = 3 2 * , 2 2 2 4 4 4 p 3 4 3 3 p 4 4 4 3 3 3 3 4 2 3 4 p 4 2 1 - - 2 ; ",
"O X O & O X O O X & ; & & * & * - $ = = 3 w 3 < 2 5 < < 3 3 1 3 2 p 4 4 q j j f p 4 p p p 3 p 3 p f 4 g p 4 0 f p 0 4 3 3 2 ; = ",
"O X O O & X + & O O & & * ; ; * : : - - < 4 i e 0 0 3 3 v 4 p 4 p p h j H ) H l l h h b f f p h f h h l h f f h f j q f 3 2 2 ; ",
"O & @ O @ b @ @ & & * * * b - - : : - 3 w w ~ i q u t q r 0 f j k I O.( X.' / P J H H z l z l j l z x 6.) x l l h h f q 4 2 ; ; ",
"X O & @ @ @ @ * * & * * = 2 : g e g 9 : e v i i q j 0 h r 0 I l S 8.,.-.,.>.>.>.=.&.| J I K H K / J | | o.{ / J G x j t 4 1 < ; ",
"O & O & @ & * * * , @ * ; 1 < 3 : w : e N 5.v F ` f 3 j l h K S J >.Z.H.J.A.Z.H.Z.Z.w.t. .%.....&.;.-...-.X.] ( K G x f 3 < ; ; ",
"+ O @ * * * * * * * * 2 3 3 0 < ; ; q w 3.e 3 K l l t t K J 4.|  .:.G.H.G.Z.T.T.T.D.H.Z.x.e.*.%.*.=. .] | { ( / G x h 0 1 3 < < ",
"+ X & & @ * , * * & ; p 4 h f ` - 2 4 f g 3 = x f H U j &...' e.8.x.H.~.F.F.v.F.T.~.T.H.v.G.x.*. .=...] J H l x x j t 3 9 e 1 2 ",
"X + & X @ @ * , * <.p p p k f 3 3 1 4 f 0 2 1 0 1 7 U j &.*.=.~.S.!.rX$X>XR.F.L.~._.`.`.Y.G.x.*.:.*.-.&.| K x l j c x 0 4 4 1 = ",
"& O X X O * * , 2 p s f h H  .h 4 0 0 4 3 4 0 0 S w /  .5.y.v.v.W.yXKXZXP.L.R.=X).9X_.[.T.T.G.C.d.>.*.t.| ] x ( { c t 0 f 1 * = ",
". X O O O O @ * 2 d p - 2 z H S 4 5 3 4 h l l S j l %.R B...v.N.N.&XJXyXE.W.;X9X9X;XfX[.`.T.G.G.x.e.w.w.J P / K O.) x j 3 = = ; ",
"X O O O O O @ * @ = $ < < 1 3 3 5 7 r x l l J  .M.I L C m.Y Z 0.9.0.$X>X>X-X:XaXaX:X_.`.~.).R.Z.Z.:.=.%.K H J / K c 0 1 = = $ $ ",
"O O O O & @ O @ @ @ * < < 2 h 5 5 s D | e... .8. XB.S S  XR q.2.W T t.v.v.W.aXsX9XaXqX:X).R.G.F.G.x.:.../ { x j q 4 3 2 <.; ; * ",
"O & O O O O * * @ @ @ < = < 5 7 h k J I.BXBXrXP.>X6XI Y 7.Y 2.W 2.A Y W Y P.hX,X-X>X,X=X=X~.~.~.Y.Z.>.{ ] K y j r q 5 - 2 ; ; & ",
"O O O @ O O , * , , * $ < , 5 < r F { Y.LXVXzXzXlXP. X7.4.1.1.<.Z A A A Z v.rXqX;X-X=X-X).E.W.E.).Y.>.J x j 4 t t t 9 1 ; ; ; n ",
"O @ d O O O O * , @ = e a.y 1 q K / &.zXAXDXBXlXtXmX6X7.T j.2.2.2.E A V V T P.>X=X=X;X-X;X>X).=XQ.>Xc.[ t t ) ` j j 9 < < ; = = ",
"O O @ @ @ @ @ @ @ @ < v ~ G 4 r #./.sXLXLXHXAXBXiXZX6X!.7.<.h.k.h.1.V V V Z 0.$X=X$X,X>X*XW.L.$XW.0XA.r.c 3 ,.~ x t 3 < < = = = ",
"@ O @ * b @ O @ @ @ $ 1 t $.m $.<X4XsXVXHXLXHXAXZXZXeX0XB. Xj.l.k.l.A A T 9.T P.,X*X*X*XE./.F.=X,X9Xv.| 3.3 K j q q 1 < < < = # ",
"@ O O O @ , @ @ @ L @ = 1 Q p.g.}.U.(.dXBXAXLXLXVXtXtXOX+XnXl.E E m.z.t.Z 9.t.$X>X,X,X,X=XW._.qX:XH.J K v 0 j l x 0 0 < < ; = = ",
"O O @ O @ @ b * * * * , w [ a.}.4XjXcXzXDXVXSXAXlXtXpXNXnXFX.Xh.h.z.M.T %.%.N.$X-XW.P.$XW.).[.:X_.:.7 y D 7 l ) J v j 3 3 - = = ",
"@ @ @ @ O & @ @ * * = ; q @.4X5X^.[.dXjXlXAXDXVXvXbXZXGXmXnXoXm.E W n.t.W.K.qX-XqX0X$XK.-X_.Y.`.G.R C r y 7 w.;.( l t 9 3 - = = ",
"O @ @ O O @ @ * * @ z 3 q U.cXgXH.^.I.L.hXlXxXDXvXiXNXGXNXMXoX.XV.wX$X-X9XhXlXqX-XE.R.K._.dX3XH.`.R T R %.A.!.r.{ < = = - - = b ",
"O @ O @ @ @ & * * = < 3 m 5XcXdX(.D.{ l | U  .kXvXiXmXnXMXFXMXOXeX7X%XxXVXVXCXlXlXsXL.F.[.fXfX'.A.e.9.K.Q.).W.S.M $ = @ & # @ @ ",
"O @ O @ O 5 # $ < < 1 u s.{.5XaX..w.U s D C V K.7XpXuX+XMXFXNX@XV.z.t.>XlX2X8.K P.lX8XW.~.{.T.Z.e. .%.=X,X~.{ u L # # # - # @ # ",
"O O O @ @ & = q m m e #.a.s.J.H.D x.' r.D G.%.W Q.iXiXMXNXFXJXXXeXQ.6X0XK | s o.r.y H q.Q.^.H.*.R J G.aXD.@.q = 1 = # $ = # + $ ",
"@ O O O @ = w w Q $.>.a.p.j { a.U | J ..l 0.v.*.b.xXZXmXFXFXnXOXOXmXiXwXE.:Xw.a , r o.&XH 6X$Xt.S w.R.D.~ q 9 1 = $ = 1 $ + + + ",
"O O @ n O & ; w e ~ ;.@.+.l ' S 8.%.%.*.e.x.L.W.tXZXKXKXKXnX.XoXuXuXuX9X9XaXR.w., 5 K ..j 4.y.v.P *.).S.( 5.q v 3 $ = = = # X X ",
"@ $ @ @ @ j x t t c i G r r 7 6 [ R D t.).:X/.hX$XV.GXJXFXGXFXuX.XQ.|.wX|.).K.Z.U.d.j D.7 8.y 7 S.-.( A.;.#.G ) w L < < = $ $ + ",
"@ @ @ @ @ < 9 t r y y G G 5 , , k *.| x I.mXyXB.I B.yXmXZXZXiXtX|.|.|.|.-X_.R.e.~.Z.r.-.....7 j y.e.| ;.J.r.^ c 0 w 3 @ = = = % ",
"# # = 8 < 1 8 0 t y G ! } G +.y =.`.S.>XlXmXM.H I 9.n.eXmXmXwX8X8XQ.!.|.Q.9XR.x.S.j U.I.{ u.( 1 q 7.7.+.p.f.+.M j q < = = $ $ @ ",
"$ $ $ = 8 1 1 q y i ) r.*.Z.;.>.'.{.zXCXCX2X/  .*.2.B.pXwXpXwXsX8XwXV.z.V.8X9X_.9XG.,X4X/.A.=.t c t 1 t c { ;.~ i 1 b - = ; $ $ ",
"$ # $ = = 1 1 0 t G ,.[ w.hX-.>.'.gXvXqXB.| H %.-XQ.9.%X9XwX8XwXQ._.R.b.c.Q.8X9X8X_.kXcXdX>.r.>.} t @ @ < ^ ^ t 3 1 3 3 = ; = = ",
"$ = - = 8 8 1 4 0 y { +.^ ! -.A.{.cXlX] U W 0.c.sXsX8XqXtX9XaX_.).Q.Q.R.c.!.Q.).qXbXCXvXdX].H.H.-.t 1 @ @ q ` 3 < 3 4 ; = ; = $ ",
"n # $ 8 9 e 1 8 e t i ~ ^ ;.X.a.J.jXi.J Y 2.|.vX,XqX0XxX9XG.F.`.`.R.R.b.n.K.R.0X0XdXjXjXdXD.;.{ u z < @ 1 t q 1 4 3 - ; = - v $ ",
"@ # # 8 1 1 1 q y u ! G +.;.d.S.A.kXy.J C Z b.zXAXP.tXW.b.U T *.R.c.v.z.0.b.W.yX:X4XdX[.H._ _ w < < @ i _ i 9 3 1 1 = = = $ = - ",
"+ % # # $ - 9 0 t m [ $.Q [ >.J.r.#X#XH S s C 4.8.M.B.m.C V 6 C U z.%.z.q.v.Q._.(.aXT.'.#.3 < 3 x @ * 9 ^ i 3 2 1 < = = = $ - $ ",
"+ & + & & = 1 q u G [ $.Q G K a.u.J.y.H C s s s <.a 6 a 6 6 K 6 6 a W 0.0.v.R.G.^.Y.a.A.#.q 1 = < 2 * q m q 4 9 1 1 < = $ = # # ",
"X # + # # < 1 9 c Q ,.! [ G F -.@.! f.H k s s k C 6 6 , 2.a D S 7 6 6 T 8.e.t.:.C.>.:.:.f.N j - = = * 1 m +.i 0 3 3 1 # # + @ + ",
"# X # + @ $ = 9 w i $.p.! [ [ ,.f.w.$X| { l u.I.} d , S s V T H s 6 U %.7.T %.&.U A.>.-.;.p.3.; & = * & 9 _ _ q z < = # + + + X ",
"X + + X 3 $ , ; w q Q a.^ +.] | y.(.(.<XdX3X:XAXdXO.Z A C s S S 5 7 l K S S P H K >.-.d.;.} N - ; = $ @ @ v ; 3 1 1 $ + + + . O ",
"+ X + & # # = ; 1 9 u _ Q K ! ) :.d.(.].{.L.D.cXf.x S s 4 k s 4 4 4 P 0 S X.' l F [ +.{ G ^ _ M 3.j q < @ @ = ; $ b + + + O . + ",
"X # X + + = L = $ 1 0 1 r u x ( _ ( #.u.a.u.-.*.4 p l k k G 2 c c h v q x @.{ l h ) [ / G ! G >.@.O.) 9 $ @ @ + + + + O O O O + ",
"X X % + + # @ @ $ $ 9 0 F G ~ $._ ( j q j j | i.2 - 4 4 r K | g ] 8.` v v X.G j ` G { _ ! c ^ >.@.} O.j 3 $ @ + + + + X + O . + ",
"+ X + + # X # # # ; - 4 h x / ..+.~ t u 8.( K N.N.I h z k W ..S.*XL.@.` @.] l r t i ! u 0 4 x ..| G K l 0 = < $ @ O g + + X # # ",
"X X + X # X # # # & - 2 3 0 i ^ J.a.x G v f v ) y.$XN.e.q.S D.,XU.y._ ) x l 0 4 r y q 3 0 < < j x h n v j 4 3 ; # # + O + # # + ",
"X X X X + # + + # ; ; ; < 1 4 b Q a.,.J @.0.j 0 v o.$XN. .f.g.f.#.5.G N j 0 4 3 4 0 1 3 z = * = f z r r f q 4 - = # + # ; w # X ",
"L X X + X X + + # ; - z < < < 1 4.i Q t 0 t l 9 v 1 - ` B f.f. .v 5.j j 4 0 0 3 0 y 4 2 < * * * * = 5 4 p 3 f 3 < = # # # $ $ X ",
". X X n X X + + @ * * * $ < < < < p 9 3 3 3 3 3 q h v o.5._ %. .` z f p 1 4 3 0 9 4 < < < = * & O * * * 1 ; 1 1 - ; & # # # + X ",
"X % X X X n X + O & * * * < < < < ; < * = < < 1 ` 0 h c ` N 7. .6.4.f I 5 < 9 u 1 < < = ; = = = * & & & * * $ ; ; & # + # # & N ",
"    X X X X X + + & @ & * * , @ * L * * = = ; 2 1 f f u v ) v T l f l h 3 < 3 < < < = = = = $ = = @ @ O @ n # ; ; $ & & + + O X ",
"X X X X   X X + + + & * * * * * & @ & * = * = = 6.A - n u ~ v f h p | I 4 < < < f = * @ * $ ; $ = $ # g + z X - + & & & + + & O ",
". . . X X X . & O & O * * * = & & @ v & $ * = = = = g 1 w g 8.j p L 4 h 3 <.= = = * * * = $ & & - # + # # O & X + X & + & + # X ",
"  . . X X X   O O X & & & * & @ + @ O & & * & & = = = ; - p i.w.f - g = 2 g * * n $ & & $ & $ & & & # # + + X + O + - + X + + X ",
"  . .   . . X X + + & + & & O @ ; & + + n b & & @ L & ; - = 3 4 0 2 4 2 g j = * = * & & & $ & $ & + + + X & X X X + X - + + X & ",
"&   . .   X . X X & + & + + & O + + + & & & + # = * v = = 2 ` ; 4 = h p p = = = w & & & & & & O & + & & X X & X O X X e X X X X ",
"o       . X X X X g + + % + + + + + + + + + n & @ @ @ @ & + = = p 3 = & & & & & & + & & & # & X + + + + X & X + X O X X # X X X ",
"      .   X . X X + O O O + + + X + + O + + + + 1 + O + & @ # @ & j * & & & & & & + X X b + + & + # # X X & X X O X X X X X X X ",
"        . . X X X X O X X + O + X + + O O + O + + + = @ + & & + & 3 $ & & + O & + & + + X + X & & X X + X X & X X X X X X X X > ",
"      .   X X X X X X X X X X + & + X X X & + + + + + + @ + O O @ & + & + + & O + - + + + + n X n X g X X X d X X X X X X   X X "
};
